<?xml version="1.0" encoding="UTF-8"?>
<svg version="1.1" xmlns="http://www.w3.org/2000/svg" width="500" height="500">
<path d="M0 0 C165 0 330 0 500 0 C500 165 500 330 500 500 C335 500 170 500 0 500 C0 335 0 170 0 0 Z " fill="#FEFEFE" transform="translate(0,0)"/>
<path d="M0 0 C4.16160823 1.83885015 6.0181044 3.93711401 8 8 C16.20964111 34.33926523 -2.16535053 75.90820179 -14.1315918 98.92675781 C-16.35953159 103.26827841 -17.64646474 107.19518278 -18.41015625 112.02832031 C-19.1212335 114.40524907 -20.23575587 115.30088664 -22 117 C-22.78506687 119.51683202 -23.43328066 121.93535486 -24 124.5 C-26.89226744 137.00047791 -30.56775991 149.14709058 -34.625 161.3125 C-34.88978149 162.10724731 -35.15456299 162.90199463 -35.42736816 163.7208252 C-54.29030938 220.14515469 -54.29030938 220.14515469 -66 226 C-64.50011039 226.0276619 -63.00006131 226.0466861 -61.5 226.0625 C-60.24703125 226.07990234 -60.24703125 226.07990234 -58.96875 226.09765625 C-56.00522906 226.00017201 -53.12736007 225.64327658 -50.19042969 225.25170898 C-45.44445966 224.70633503 -40.6611139 224.59705201 -35.890625 224.39453125 C-34.68792969 224.33845703 -34.68792969 224.33845703 -33.4609375 224.28125 C-32.74728027 224.25095703 -32.03362305 224.22066406 -31.29833984 224.18945312 C-28.94719023 224.03880961 -28.94719023 224.03880961 -26.46044922 223.5 C-21.37207579 222.76478138 -16.30718895 222.78230143 -11.171875 222.71875 C-10.02769104 222.70034058 -8.88350708 222.68193115 -7.70465088 222.66296387 C-4.05315143 222.60437867 -0.40160545 222.55152602 3.25 222.5 C8.04696411 222.43191734 12.84379544 222.35817163 17.640625 222.28125 C19.27393768 222.26088684 19.27393768 222.26088684 20.94024658 222.2401123 C27.34307364 222.13728649 33.64055441 221.75770422 40 221 C36.14569886 216.67328452 32.38774851 214.40614232 27.125 212.0625 C26.38121094 211.72041504 25.63742187 211.37833008 24.87109375 211.02587891 C19.97656167 208.80194147 15.01708506 206.80232233 10 204.875 C4.32330978 202.65157918 -1.54984756 200.30543204 -6 196 C-6 195.01 -6 194.02 -6 193 C-2.78858641 191.13085324 -0.21537015 190.66843773 3.4765625 190.4375 C4.60094727 190.36402344 5.72533203 190.29054688 6.88378906 190.21484375 C8.11838867 190.14394531 9.35298828 190.07304687 10.625 190 C11.92663086 189.91878906 13.22826172 189.83757812 14.56933594 189.75390625 C25.21625807 189.10190005 35.87134927 188.61530389 46.52670288 188.12527466 C78.12599741 187.60494823 78.12599741 187.60494823 109 182 C109 181.34 109 180.68 109 180 C102.16087197 177.77988689 95.40966206 176.19319317 88.3125 175.0625 C86.76127441 174.81209961 86.76127441 174.81209961 85.17871094 174.55664062 C62.1079934 170.91066159 39.01172885 168.39809402 15.74121094 166.48242188 C6.98037556 165.74684666 -1.71959941 164.8608248 -10.41015625 163.515625 C-11.17845764 163.39843613 -11.94675903 163.28124725 -12.73834229 163.1605072 C-18.77633331 162.17563689 -24.39549763 160.48109431 -30 158 C-29.67 157.01 -29.34 156.02 -29 155 C-22.70582515 152.06560233 -15.3959495 151.25011356 -8.5625 150.4375 C-7.55388916 150.31455566 -6.54527832 150.19161133 -5.50610352 150.06494141 C8.96261414 148.41697461 23.51910813 147.79589919 38.05804443 147.09570312 C40.81662049 146.95975545 43.57426195 146.80758276 46.33203125 146.65625 C61.55402989 145.86067973 76.76192517 145.89473112 92 146 C92 147.98 92 149.96 92 152 C90.89151451 152.0154612 90.89151451 152.0154612 89.76063538 152.03123474 C82.71683734 152.1301606 75.67310454 152.23278893 68.62941837 152.33933926 C65.01021335 152.39396298 61.39099997 152.44726939 57.77172852 152.49731445 C30.75811908 152.68542895 30.75811908 152.68542895 3.875 155.0625 C-1.10987262 155.73317466 -5.96141258 156.0981543 -11 156 C-11 156.66 -11 157.32 -11 158 C-10.17822266 158.07347656 -10.17822266 158.07347656 -9.33984375 158.1484375 C-4.2888069 158.62479545 0.72608769 159.22935698 5.75 159.9375 C10.86559716 160.63457994 15.96517544 161.19668888 21.10943604 161.62937927 C34.31446853 162.74048159 47.45090445 164.31637129 60.59667969 165.97680664 C64.25909602 166.43864703 67.92243977 166.89252973 71.5859375 167.34570312 C81.86307961 168.62757772 92.13338817 169.9293989 102.35546875 171.6015625 C103.05669861 171.7146727 103.75792847 171.8277829 104.48040771 171.94432068 C109.73476083 172.84105219 115.56310913 173.8847362 120 177 C120.74609375 179.12890625 120.74609375 179.12890625 121 181 C117.89621148 183.63822024 115.18537076 184.70365731 111.25 185.6875 C109.77273438 186.06455078 109.77273438 186.06455078 108.265625 186.44921875 C107.51796875 186.63097656 106.7703125 186.81273437 106 187 C106.12568359 188.57201172 106.12568359 188.57201172 106.25390625 190.17578125 C106.35708794 191.55466381 106.45993506 192.93357143 106.5625 194.3125 C106.61857422 195.00279297 106.67464844 195.69308594 106.73242188 196.40429688 C106.96581505 199.62512274 107.03224218 201.90327345 106 205 C104.02 205 102.04 205 100 205 C100.05800781 205.61488281 100.11601562 206.22976563 100.17578125 206.86328125 C100.31314484 209.32405191 100.3659631 211.56024603 100 214 C97.5625 215.8125 97.5625 215.8125 95 217 C94.67 218.32 94.34 219.64 94 221 C83.605 221.99 83.605 221.99 73 223 C72.01 225.97 72.01 225.97 71 229 C68.8359375 230.0234375 68.8359375 230.0234375 66.375 230.375 C65.55773437 230.50648438 64.74046875 230.63796875 63.8984375 230.7734375 C62.95871094 230.88558594 62.95871094 230.88558594 62 231 C62 231.66 62 232.32 62 233 C61.01 233 60.02 233 59 233 C59 233.66 59 234.32 59 235 C60.65 235.33 62.3 235.66 64 236 C62.02 236.99 62.02 236.99 60 238 C60 239.65 60 241.3 60 243 C56.91048384 244.74932744 54.26623206 245.40727892 50.75390625 245.8515625 C49.75166016 245.98046875 48.74941406 246.109375 47.71679688 246.2421875 C46.67587891 246.36851562 45.63496094 246.49484375 44.5625 246.625 C43.00692383 246.82609375 43.00692383 246.82609375 41.41992188 247.03125 C36.91145034 247.59879041 32.55005627 248.07700648 28 248 C28.02296143 249.01570068 28.04592285 250.03140137 28.06958008 251.07788086 C27.83760013 264.15422398 23.01899642 276.70948452 18.8125 288.9375 C18.2471949 290.60322673 17.68273683 292.26924117 17.11914062 293.93554688 C15.75580013 297.96040277 14.38118112 301.98123324 13 306 C14.39384151 304.60615849 15.44382438 303.02649619 16.58984375 301.421875 C17.38805542 300.308125 17.38805542 300.308125 18.20239258 299.171875 C18.77497803 298.37265625 19.34756348 297.5734375 19.9375 296.75 C25.48041743 289.04553525 31.15148419 281.47478705 37 274 C37.67417969 273.10796875 38.34835937 272.2159375 39.04296875 271.296875 C43.78266267 265.12865057 49.01902771 259.96896344 55 255 C56.010625 254.154375 57.02125 253.30875 58.0625 252.4375 C62.12484333 250.44954476 65.56079102 250.33453983 70 251 C72.5625 252 72.5625 252 74 254 C74.61074486 260.52865198 73.35828059 264.33692581 70 269.875 C69.58919189 270.5747998 69.17838379 271.27459961 68.75512695 271.99560547 C65.30395172 277.75399343 61.41628607 282.94288921 57 288 C56.02504927 289.13326158 55.05116615 290.26744215 54.078125 291.40234375 C53.5632251 292.00224121 53.0483252 292.60213867 52.51782227 293.22021484 C50.46999669 295.60749923 48.4231058 297.99556432 46.38037109 300.38720703 C45.15076378 301.82385117 43.91377947 303.25417396 42.67578125 304.68359375 C42.04027344 305.44800781 41.40476562 306.21242188 40.75 307 C40.20859375 307.639375 39.6671875 308.27875 39.109375 308.9375 C37.55622389 311.82504854 37.66196905 313.75248833 38 317 C39.06313981 320.22733182 39.06313981 320.22733182 40.5 323.4375 C42.47238671 328.29346053 43.60453689 331.80098276 43 337 C44.65 337 46.3 337 48 337 C44 341 44 341 42.49609375 342.34765625 C40.71965612 344.30962261 39.91625869 346.19539638 38.875 348.625 C31.6365961 363.29341261 16.01071075 370.99264156 1.21875 376.22265625 C-2.3341517 377.08069926 -5.35814573 377.27844274 -9 377 C-9.66 376.34 -10.32 375.68 -11 375 C-10.83347803 371.93700505 -10.28803971 370.35477232 -8.34765625 367.96484375 C2.95046493 357.9413824 20.81209622 342.75143184 36 340 C36.68422725 332.27583457 35.54766121 326.86807421 32.09375 319.921875 C30.74785513 316.32641299 30.55806607 313.81436181 31 310 C32.65234375 307.26171875 32.65234375 307.26171875 34.9375 304.6875 C36.17886719 303.25664063 36.17886719 303.25664063 37.4453125 301.796875 C39.00864901 300.08533228 40.58402739 298.38457329 42.1796875 296.703125 C51.5089014 286.79297104 66 270.25655774 66 256 C61.4224778 258.0748611 58.43956402 261.21747941 54.9375 264.75 C54.26992676 265.42248779 53.60235352 266.09497559 52.91455078 266.7878418 C46.71285685 273.13457414 41.24244107 279.85171507 36 287 C35.49259277 287.68964844 34.98518555 288.37929688 34.46240234 289.08984375 C28.41232129 297.34045566 22.50641972 305.6912514 16.625 314.0625 C6.43467325 328.56532675 6.43467325 328.56532675 2 333 C-0.5625 333.1875 -0.5625 333.1875 -3 333 C-3.33 332.67 -3.66 332.34 -4 332 C-3.54084538 326.21994244 -1.81516468 321.20266313 0.203125 315.796875 C0.86072804 313.99220607 1.51827833 312.18751791 2.17578125 310.3828125 C3.20431648 307.58531328 4.23563341 304.78886621 5.26904297 301.99316406 C15.71063149 274.71877589 15.71063149 274.71877589 19 246 C5.77871479 255.28303004 -1.32383649 274.33895455 -7 289 C-7.66 289 -8.32 289 -9 289 C-10.37717586 275.99333913 -4.57915217 263.87481853 2 253 C0.081875 253.2165625 0.081875 253.2165625 -1.875 253.4375 C-3.58330849 253.62522621 -5.29164325 253.81271348 -7 254 C-8.25876953 254.14308594 -8.25876953 254.14308594 -9.54296875 254.2890625 C-13.5706384 254.72617394 -17.50882459 255.05067094 -21.5625 255 C-22.696875 255 -23.83125 255 -25 255 C-25.33 255.33 -25.66 255.66 -26 256 C-33.92374523 257.45538178 -41.97580063 257.08764295 -50 257 C-50 255.68 -50 254.36 -50 253 C-51.32 252.67 -52.64 252.34 -54 252 C-54 251.34 -54 250.68 -54 250 C-55.24136719 250.11859375 -56.48273438 250.2371875 -57.76171875 250.359375 C-59.40355514 250.49072191 -61.04548798 250.62086721 -62.6875 250.75 C-63.50412109 250.83121094 -64.32074219 250.91242188 -65.16210938 250.99609375 C-69.21573551 251.2914997 -71.33532602 251.39487352 -74.90625 249.2734375 C-76.80859223 247.20783456 -78.37231458 245.27988105 -79.8125 242.875 C-80.44091797 241.85019531 -80.44091797 241.85019531 -81.08203125 240.8046875 C-82 239 -82 239 -82 237 C-83.65 237 -85.3 237 -87 237 C-87 236.67 -87 236.34 -87 236 C-85.35 236 -83.7 236 -82 236 C-82 235.34 -82 234.68 -82 234 C-87.445 234.99 -87.445 234.99 -93 236 C-91.02 236.99 -91.02 236.99 -89 238 C-90 239 -90 239 -92.9375 239.0625 C-93.948125 239.041875 -94.95875 239.02125 -96 239 C-96.66 239 -97.32 239 -98 239 C-98 239.66 -98 240.32 -98 241 C-99.093125 241.12375 -100.18625 241.2475 -101.3125 241.375 C-105.07381802 241.75464801 -105.07381802 241.75464801 -108 244 C-116.15157375 245.62859137 -124.47744094 247.13772301 -132.43359375 244.1171875 C-134.42174289 242.69920582 -135.0793317 241.2299604 -136 239 C-136.66 239 -137.32 239 -138 239 C-140 233 -140 233 -140.8125 230.25 C-142.86616089 224.6294544 -145.68302806 219.33002728 -148.625 214.125 C-150.9984546 208.73078499 -153.13950184 202.38421125 -152.89453125 196.44140625 C-152.80767225 193.90110651 -152.80767225 193.90110651 -154.39453125 191.70703125 C-156.51078392 188.1387512 -157.02444118 184.74194165 -157.6875 180.6875 C-157.81705078 179.94693359 -157.94660156 179.20636719 -158.08007812 178.44335938 C-158.3958706 176.63047666 -158.69920583 174.81543149 -159 173 C-151.81013024 168.70276643 -145.12895323 165.92435765 -137 164 C-135.12030235 163.51796085 -133.24491796 163.01868279 -131.375 162.5 C-130.55773437 162.2834375 -129.74046875 162.066875 -128.8984375 161.84375 C-127.95871094 161.42609375 -127.95871094 161.42609375 -127 161 C-126.67 160.01 -126.34 159.02 -126 158 C-126.66 158 -127.32 158 -128 158 C-131.04019721 152.93300466 -132.1183221 147.67427278 -133.3515625 141.92578125 C-133.95609744 138.95927158 -133.95609744 138.95927158 -135 136 C-133.08786282 131.64724976 -131.00330475 130.11008013 -126.6953125 128.28125 C-125.6441626 127.8265332 -124.5930127 127.37181641 -123.51000977 126.90332031 C-122.39295654 126.44022461 -121.27590332 125.97712891 -120.125 125.5 C-118.97894287 125.01370117 -117.83288574 124.52740234 -116.65209961 124.02636719 C-114.46529537 123.10288725 -112.27562375 122.18614793 -110.08227539 121.27832031 C-107.90667922 120.3760295 -105.73728257 119.45871975 -103.57250977 118.53076172 C-87.4092364 111.65327514 -69.31351878 107.74610192 -52 105 C-51.814375 103.8553125 -51.814375 103.8553125 -51.625 102.6875 C-51 100 -51 100 -49 97 C-48.70940589 95.11260591 -48.49255746 93.21362617 -48.3125 91.3125 C-45.23634556 68.04908208 -36.09656084 44.5806088 -25 24 C-24.42378906 22.90816406 -23.84757813 21.81632812 -23.25390625 20.69140625 C-11.22170409 -1.12217041 -11.22170409 -1.12217041 0 0 Z " fill="#F8E372" transform="translate(267,71)"/>
<path d="M0 0 C4.16160823 1.83885015 6.0181044 3.93711401 8 8 C16.20964111 34.33926523 -2.16535053 75.90820179 -14.1315918 98.92675781 C-16.35953159 103.26827841 -17.64646474 107.19518278 -18.41015625 112.02832031 C-19.1212335 114.40524907 -20.23575587 115.30088664 -22 117 C-22.78506687 119.51683202 -23.43328066 121.93535486 -24 124.5 C-26.89226744 137.00047791 -30.56775991 149.14709058 -34.625 161.3125 C-35.02217224 162.50462097 -35.02217224 162.50462097 -35.42736816 163.7208252 C-54.29030938 220.14515469 -54.29030938 220.14515469 -66 226 C-64.50011039 226.0276619 -63.00006131 226.0466861 -61.5 226.0625 C-60.24703125 226.07990234 -60.24703125 226.07990234 -58.96875 226.09765625 C-56.00522906 226.00017201 -53.12736007 225.64327658 -50.19042969 225.25170898 C-45.44445966 224.70633503 -40.6611139 224.59705201 -35.890625 224.39453125 C-34.68792969 224.33845703 -34.68792969 224.33845703 -33.4609375 224.28125 C-32.74728027 224.25095703 -32.03362305 224.22066406 -31.29833984 224.18945312 C-28.94719023 224.03880961 -28.94719023 224.03880961 -26.46044922 223.5 C-21.37207579 222.76478138 -16.30718895 222.78230143 -11.171875 222.71875 C-10.02769104 222.70034058 -8.88350708 222.68193115 -7.70465088 222.66296387 C-4.05315143 222.60437867 -0.40160545 222.55152602 3.25 222.5 C8.04696411 222.43191734 12.84379544 222.35817163 17.640625 222.28125 C19.27393768 222.26088684 19.27393768 222.26088684 20.94024658 222.2401123 C27.34307364 222.13728649 33.64055441 221.75770422 40 221 C36.14569886 216.67328452 32.38774851 214.40614232 27.125 212.0625 C26.38121094 211.72041504 25.63742187 211.37833008 24.87109375 211.02587891 C19.97656167 208.80194147 15.01708506 206.80232233 10 204.875 C4.32330978 202.65157918 -1.54984756 200.30543204 -6 196 C-6 195.01 -6 194.02 -6 193 C-2.78858641 191.13085324 -0.21537015 190.66843773 3.4765625 190.4375 C4.60094727 190.36402344 5.72533203 190.29054688 6.88378906 190.21484375 C8.11838867 190.14394531 9.35298828 190.07304687 10.625 190 C11.92663086 189.91878906 13.22826172 189.83757812 14.56933594 189.75390625 C25.21625807 189.10190005 35.87134927 188.61530389 46.52670288 188.12527466 C78.12599741 187.60494823 78.12599741 187.60494823 109 182 C109 181.34 109 180.68 109 180 C102.16087197 177.77988689 95.40966206 176.19319317 88.3125 175.0625 C86.76127441 174.81209961 86.76127441 174.81209961 85.17871094 174.55664062 C62.1079934 170.91066159 39.01172885 168.39809402 15.74121094 166.48242188 C6.98037556 165.74684666 -1.71959941 164.8608248 -10.41015625 163.515625 C-11.17845764 163.39843613 -11.94675903 163.28124725 -12.73834229 163.1605072 C-18.77633331 162.17563689 -24.39549763 160.48109431 -30 158 C-29.67 157.01 -29.34 156.02 -29 155 C-22.70582515 152.06560233 -15.3959495 151.25011356 -8.5625 150.4375 C-7.55388916 150.31455566 -6.54527832 150.19161133 -5.50610352 150.06494141 C8.96261414 148.41697461 23.51910813 147.79589919 38.05804443 147.09570312 C40.81662049 146.95975545 43.57426195 146.80758276 46.33203125 146.65625 C61.55402989 145.86067973 76.76192517 145.89473112 92 146 C92 147.98 92 149.96 92 152 C90.89151451 152.0154612 90.89151451 152.0154612 89.76063538 152.03123474 C82.71683734 152.1301606 75.67310454 152.23278893 68.62941837 152.33933926 C65.01021335 152.39396298 61.39099997 152.44726939 57.77172852 152.49731445 C30.75811908 152.68542895 30.75811908 152.68542895 3.875 155.0625 C-1.10987262 155.73317466 -5.96141258 156.0981543 -11 156 C-11 156.66 -11 157.32 -11 158 C-10.17822266 158.07347656 -10.17822266 158.07347656 -9.33984375 158.1484375 C-4.2888069 158.62479545 0.72608769 159.22935698 5.75 159.9375 C10.86559716 160.63457994 15.96517544 161.19668888 21.10943604 161.62937927 C34.31446853 162.74048159 47.45090445 164.31637129 60.59667969 165.97680664 C64.25909602 166.43864703 67.92243977 166.89252973 71.5859375 167.34570312 C81.86307961 168.62757772 92.13338817 169.9293989 102.35546875 171.6015625 C103.05669861 171.7146727 103.75792847 171.8277829 104.48040771 171.94432068 C109.73476083 172.84105219 115.56310913 173.8847362 120 177 C120.74609375 179.12890625 120.74609375 179.12890625 121 181 C106.57140881 193.62960654 78.05680344 192.20306058 60.15249634 192.54208374 C43.02433395 192.86876874 26.04396375 194.33553207 9 196 C11.4985896 197.19054084 13.99868934 198.37769699 16.5 199.5625 C17.26304443 199.92529053 18.02608887 200.28808105 18.81225586 200.66186523 C22.64733761 202.47220703 26.48814941 204.22927461 30.41015625 205.84375 C37.89390043 208.93131514 44.39560302 211.93471511 50 218 C49.203125 222.7890625 49.203125 222.7890625 47.375 224.6875 C35.57026283 231.21117054 18.58234884 229.15766961 5.39953613 229.38842773 C-21.36992955 229.55097844 -21.36992955 229.55097844 -47.90991211 232.52294922 C-51.06944312 233.0107207 -54.04309174 233.12938497 -57.23828125 233.1328125 C-58.38748047 233.13410156 -59.53667969 233.13539063 -60.72070312 233.13671875 C-61.90599609 233.13285156 -63.09128906 233.12898437 -64.3125 233.125 C-66.11944336 233.13080078 -66.11944336 233.13080078 -67.96289062 233.13671875 C-69.10564453 233.13542969 -70.24839844 233.13414062 -71.42578125 233.1328125 C-72.47161377 233.13168457 -73.51744629 233.13055664 -74.5949707 233.12939453 C-77 233 -77 233 -78 232 C-78.36978426 230.36197128 -78.69668783 228.71412956 -79 227.0625 C-79.6503519 223.41467401 -79.6503519 223.41467401 -81 220 C-81.12619896 218.08647154 -81.17580701 216.16764977 -81.1875 214.25 C-81.20167969 213.22390625 -81.21585938 212.1978125 -81.23046875 211.140625 C-80.47659527 188.02893113 -73.48590318 164.20056532 -66 142.4375 C-65.75509827 141.71986481 -65.51019653 141.00222961 -65.25787354 140.2628479 C-61.5511319 129.4836705 -57.09720788 119.19441576 -52 109 C-51.72904124 106.73340843 -51.55512003 104.46718841 -51.37890625 102.19140625 C-51 100 -51 100 -49 97 C-48.70940589 95.11260591 -48.49255746 93.21362617 -48.3125 91.3125 C-45.23634556 68.04908208 -36.09656084 44.5806088 -25 24 C-24.42378906 22.90816406 -23.84757812 21.81632812 -23.25390625 20.69140625 C-11.22170409 -1.12217041 -11.22170409 -1.12217041 0 0 Z " fill="#474021" transform="translate(267,71)"/>
<path d="M0 0 C2.86747269 0.00322049 5.73396798 -0.02061512 8.60131836 -0.0456543 C10.43269728 -0.0479222 12.26407895 -0.04863316 14.09545898 -0.04760742 C14.94848099 -0.05681717 15.80150299 -0.06602692 16.68037415 -0.07551575 C22.59661204 -0.0288099 22.59661204 -0.0288099 24.7141571 1.7212677 C30.25397583 8.51948258 28.38341557 22.03827164 28.01342773 30.31567383 C27.69825195 31.49516602 27.69825195 31.49516602 27.37670898 32.69848633 C27.25682617 33.2321582 27.13694336 33.76583008 27.01342773 34.31567383 C29.0236749 36.59596391 29.0236749 36.59596391 32.57592773 37.69067383 C36.01342773 39.31567383 36.01342773 39.31567383 36.95092773 41.50317383 C36.97155273 42.10129883 36.99217773 42.69942383 37.01342773 43.31567383 C38.33342773 43.31567383 39.65342773 43.31567383 41.01342773 43.31567383 C41.01342773 45.95567383 41.01342773 48.59567383 41.01342773 51.31567383 C31.43425812 52.38822881 21.82917097 52.6914597 12.20465088 53.07394409 C-2.50982408 53.67060334 -17.19584326 54.39618321 -31.86157227 55.75317383 C-33.71721802 55.91825439 -33.71721802 55.91825439 -35.61035156 56.08666992 C-49.56365404 56.76855422 -49.56365404 56.76855422 -61.88061523 61.91503906 C-62.42806396 62.60835327 -62.42806396 62.60835327 -62.98657227 63.31567383 C-46.28018843 68.60915725 -28.6597324 69.84539523 -11.29733276 71.33599854 C7.05872785 72.92591055 25.33786965 74.81407647 43.57592773 77.44067383 C44.43703156 77.56278229 45.29813538 77.68489075 46.18533325 77.81069946 C71.0991498 81.37282187 71.0991498 81.37282187 77.01342773 85.31567383 C76.68342773 86.30567383 76.35342773 87.29567383 76.01342773 88.31567383 C57.31717467 96.42098585 30.9352298 93.64757679 10.82275391 94.5637207 C-0.24593402 95.07066445 -11.30513372 95.65002016 -22.36157227 96.37817383 C-23.59617187 96.45745117 -24.83077148 96.53672852 -26.1027832 96.6184082 C-27.22716797 96.69510742 -28.35155273 96.77180664 -29.51000977 96.85083008 C-30.96286377 96.94956421 -30.96286377 96.94956421 -32.44506836 97.05029297 C-34.71953881 97.28779051 -36.79073461 97.69184896 -38.98657227 98.31567383 C-37.94898275 101.62712974 -36.84400223 102.40251673 -33.81860352 104.24536133 C-32.48559826 104.90774299 -31.14519282 105.55536924 -29.79907227 106.19067383 C-29.08726807 106.53727051 -28.37546387 106.88386719 -27.64208984 107.2409668 C-22.8955449 109.51540753 -18.0802035 111.53930935 -13.17407227 113.44067383 C4.23411686 120.22691705 4.23411686 120.22691705 7.01342773 126.31567383 C-0.48835666 128.13091446 -7.64497119 128.63507169 -15.34594727 128.69458008 C-16.49395813 128.71157455 -17.64196899 128.72856903 -18.82476807 128.74607849 C-22.46198148 128.79881527 -26.09918609 128.83933451 -29.73657227 128.87817383 C-33.38818495 128.92223588 -37.03971433 128.96900345 -40.69122314 129.02098083 C-42.95495269 129.05271099 -45.21875556 129.07966958 -47.48260498 129.10121155 C-52.43309496 129.16615055 -57.11414533 129.35214929 -61.98657227 130.31567383 C-63.47146762 130.43807438 -64.95891865 130.53373685 -66.44750977 130.59692383 C-67.65020508 130.65299805 -67.65020508 130.65299805 -68.87719727 130.71020508 C-69.69704102 130.74500977 -70.51688477 130.77981445 -71.36157227 130.81567383 C-75.99368168 131.0141928 -80.58449996 131.22185345 -85.18188477 131.84301758 C-88.67044158 132.27640092 -91.97617876 132.41806466 -95.48657227 132.37817383 C-96.52813477 132.36915039 -97.56969727 132.36012695 -98.64282227 132.35083008 C-99.80297852 132.33342773 -99.80297852 132.33342773 -100.98657227 132.31567383 C-100.30594727 131.86192383 -99.62532227 131.40817383 -98.92407227 130.94067383 C-83.75970674 117.38953868 -77.58730919 92.88608684 -70.98657227 74.31567383 C-70.59937012 73.22802734 -70.21216797 72.14038086 -69.81323242 71.01977539 C-65.05781412 57.53332265 -60.9080244 44.09208794 -57.92529297 30.09521484 C-57.60371216 28.62652954 -57.60371216 28.62652954 -57.27563477 27.12817383 C-57.00807373 25.8384668 -57.00807373 25.8384668 -56.73510742 24.52270508 C-55.89802579 22.05459746 -54.87696315 21.05527234 -52.98657227 19.31567383 C-52.08675221 16.7962872 -52.08675221 16.7962872 -51.48657227 14.00317383 C-50.41328872 9.72139715 -49.16028399 6.14554686 -46.98657227 2.31567383 C-46.30594727 2.33887695 -45.62532227 2.36208008 -44.92407227 2.38598633 C-39.13563627 2.49374976 -33.63982381 2.18798504 -27.91235352 1.32739258 C-18.62074761 0.06250923 -9.36490926 -0.0220697 0 0 Z " fill="#F8E271" transform="translate(299.986572265625,165.684326171875)"/>
<path d="M0 0 C3.0625 0.75 3.0625 0.75 5.0625 2.75 C6.77147224 13.12306409 3.12464392 25.27166418 -0.9375 34.75 C9.02886289 30.29900298 14.01539969 26.64199309 18.41015625 16.2421875 C21.4131976 9.89533416 26.23130596 4.63746269 32.0625 0.75 C34.32421875 0.5546875 34.32421875 0.5546875 36.75 0.625 C37.96236328 0.65207031 37.96236328 0.65207031 39.19921875 0.6796875 C40.12154297 0.71449219 40.12154297 0.71449219 41.0625 0.75 C42.0525 3.225 42.0525 3.225 43.0625 5.75 C43.7225 5.09 44.3825 4.43 45.0625 3.75 C47.6875 3.625 47.6875 3.625 50.0625 3.75 C49.69184345 10.89001573 49.31749427 17.90151999 48 24.9375 C45.94652696 35.7567679 45.94652696 35.7567679 49.0625 45.75 C46.6875 45.4375 46.6875 45.4375 44.0625 44.75 C41.25585931 40.54003896 40.9327274 36.86475312 40.96484375 31.88671875 C40.96967773 30.55737305 40.96967773 30.55737305 40.97460938 29.20117188 C40.98717773 27.8331543 40.98717773 27.8331543 41 26.4375 C41.00451172 25.50615234 41.00902344 24.57480469 41.01367188 23.61523438 C41.02540766 21.32675627 41.04182637 19.03841192 41.0625 16.75 C40.47082031 17.34167969 39.87914062 17.93335938 39.26953125 18.54296875 C37.6393224 20.1731776 36.00775804 21.80203183 34.375 23.4296875 C32.68890339 25.12148038 31.02513586 26.83561363 29.375 28.5625 C25.43951605 32.28525509 22.7148096 34.64339938 17.1875 35 C16.15625 34.9175 15.125 34.835 14.0625 34.75 C13.7325 33.1 13.4025 31.45 13.0625 29.75 C1.49504383 36.01570542 -3.88035069 41.72346847 -9.01611328 53.73046875 C-18.02966582 73.48672381 -36.28378894 90.96201935 -56.5 98.6875 C-61.49645252 100.16996393 -66.77656917 100.42930201 -71.9375 99.75 C-73.9375 97.75 -73.9375 97.75 -74.296875 94.984375 C-73.85215283 90.98187547 -72.61993142 89.19148803 -70.1875 86 C-69.49140625 85.05640625 -68.7953125 84.1128125 -68.078125 83.140625 C-60.18593084 74.00751981 -49.65018198 67.28438462 -39.625 60.75 C-38.43505035 59.96616667 -37.24560163 59.18157238 -36.05664062 58.39624023 C-32.68837409 56.17348894 -29.31328064 53.96132186 -25.9375 51.75 C-22.93408533 49.77594802 -19.93465265 47.79603946 -16.9375 45.8125 C-16.35186279 45.43029297 -15.76622559 45.04808594 -15.1628418 44.65429688 C-8.35668093 40.16046557 -6.90516749 36.46102134 -4.75 28.75 C-4.48171387 27.80552002 -4.21342773 26.86104004 -3.93701172 25.88793945 C-2.19072284 19.44551945 -1.09090217 13.44439393 -1.9375 6.75 C-3.27159037 8.37437855 -4.60471874 9.99954718 -5.9375 11.625 C-6.7625 12.62660156 -7.5875 13.62820313 -8.4375 14.66015625 C-9.99065634 16.57976041 -11.51710479 18.52170865 -13 20.49609375 C-17.79817975 26.85174717 -22.80355765 31.18302883 -29.9375 34.75 C-36.31026864 35.1040427 -36.31026864 35.1040427 -38.9375 33.62109375 C-40.8900599 32.49350672 -40.8900599 32.49350672 -42.7265625 33.4296875 C-43.33242187 33.82414062 -43.93828125 34.21859375 -44.5625 34.625 C-49.32819388 37.23901866 -53.59167597 37.64395051 -58.9375 36.75 C-63.06701047 34.68524476 -65.2368038 33.00555372 -66.9375 28.75 C-68.15181768 20.74828557 -66.48375278 14.38442663 -61.9375 7.75 C-59.28464075 4.5921729 -56.98873829 2.91819813 -52.8125 2.25 C-49.56691682 2.81444925 -48.10167188 3.25287861 -45.9375 5.75 C-45.1410701 9.64365731 -45.84627277 12.05869222 -47.9375 15.3125 C-50.92070775 19.18121322 -54.6816836 21.45840655 -58.9375 23.75 C-58.75285634 28.09184202 -58.75285634 28.09184202 -56.9375 31.75 C-50.28180167 32.59966362 -45.54393361 30.23482089 -39.9375 26.75 C-37.27083333 24.41666667 -37.27083333 24.41666667 -34.9375 21.75 C-29.47287324 16.47219809 -24.52432338 11.83494117 -16.5625 11.6875 C-12.17283388 10.55224152 -11.28353869 9.12204161 -8.4375 5.6875 C-3.72345597 0.03870536 -3.72345597 0.03870536 0 0 Z " fill="#1E2022" transform="translate(200.9375,382.25)"/>
<path d="M0 0 C1.03125 0.144375 2.0625 0.28875 3.125 0.4375 C4.11177846 3.03721615 4.20128288 4.21237904 3.2956543 6.88500977 C2.6291687 8.24323853 2.6291687 8.24323853 1.94921875 9.62890625 C1.45639404 10.6456543 0.96356934 11.66240234 0.45581055 12.70996094 C-0.08648193 13.79567383 -0.62877441 14.88138672 -1.1875 16 C-1.74074951 17.12825195 -2.29399902 18.25650391 -2.86401367 19.41894531 C-7.22902255 28.27068388 -11.78869029 37.01130451 -16.42919922 45.72070312 C-39.57455416 83.08270397 -39.57455416 83.08270397 -49.875 123.4375 C-49.545 124.0975 -49.215 124.7575 -48.875 125.4375 C-51.75 125.5625 -51.75 125.5625 -54.875 125.4375 C-57.23395278 123.07854722 -57.16338515 122.56789381 -57.16796875 119.359375 C-57.0450569 114.42323521 -55.89366135 110.29191107 -54.1875 105.6875 C-53.72827148 104.41990845 -53.72827148 104.41990845 -53.25976562 103.12670898 C-44.98861857 80.94050359 -34.27278944 59.84533546 -23.15917969 38.97998047 C-21.78750763 36.41742703 -21.78750763 36.41742703 -20.875 33.4375 C-21.38546875 34.06914062 -21.8959375 34.70078125 -22.421875 35.3515625 C-27.28965759 41.34135172 -32.24011107 47.2465946 -37.28344727 53.08886719 C-39.80797749 56.01541815 -42.3128677 58.95363025 -44.76953125 61.9375 C-56.62048747 76.30372766 -56.62048747 76.30372766 -61.875 79.4375 C-65.13671875 79.63671875 -65.13671875 79.63671875 -67.875 79.4375 C-69.80355062 74.18166974 -67.57097859 70.28170719 -65.5 65.4375 C-65.14292969 64.57479492 -64.78585938 63.71208984 -64.41796875 62.82324219 C-63.25239744 60.02123295 -62.06598964 57.22879315 -60.875 54.4375 C-60.45702148 53.45201172 -60.03904297 52.46652344 -59.60839844 51.45117188 C-57.05531525 45.43584926 -54.47762991 39.4315457 -51.875 33.4375 C-56.14459277 37.49242051 -59.725694 41.89975332 -63.3125 46.5625 C-63.92013184 47.34802246 -64.52776367 48.13354492 -65.15380859 48.94287109 C-71.29736239 56.92079358 -77.25076627 65.03616847 -83.20214844 73.15771484 C-87.24952546 78.67353601 -91.32078167 84.16946849 -95.47558594 89.60498047 C-96.41071688 90.82952563 -97.34104708 92.05775143 -98.26660156 93.28955078 C-99.57523172 95.02145123 -100.90779846 96.73155056 -102.25 98.4375 C-103.37535156 99.8915625 -103.37535156 99.8915625 -104.5234375 101.375 C-106.875 103.4375 -106.875 103.4375 -110.1640625 103.75 C-111.05867188 103.646875 -111.95328125 103.54375 -112.875 103.4375 C-112.31412656 98.65804086 -110.84460678 94.80169444 -108.69921875 90.546875 C-108.21703636 89.56611244 -108.21703636 89.56611244 -107.72511292 88.5655365 C-107.03528998 87.16385885 -106.34210955 85.76382942 -105.64587402 84.36532593 C-103.80765526 80.67009197 -101.99767144 76.96103399 -100.18359375 73.25390625 C-99.81803375 72.50853104 -99.45247375 71.76315582 -99.07583618 70.99519348 C-95.6843753 64.07244445 -92.37496792 57.11536009 -89.125 50.125 C-88.64893311 49.11469727 -88.17286621 48.10439453 -87.68237305 47.06347656 C-84.56751477 40.33174391 -82.0827115 33.51732165 -79.875 26.4375 C-88.94921767 31.79940969 -97.62349419 39.01686828 -100.4609375 49.62890625 C-100.80675876 51.7113088 -100.80675876 51.7113088 -100.875 54.4375 C-102.195 53.7775 -103.515 53.1175 -104.875 52.4375 C-105.50768401 45.79431786 -104.83484322 42.09868915 -100.85546875 36.7109375 C-89.029783 23.13588996 -89.029783 23.13588996 -81.453125 22.109375 C-80.68484375 22.13515625 -79.9165625 22.1609375 -79.125 22.1875 C-77.95710938 22.21070313 -77.95710938 22.21070313 -76.765625 22.234375 C-74.875 22.4375 -74.875 22.4375 -73.875 23.4375 C-73.34493723 28.70600266 -74.90872557 32.71202411 -77 37.4375 C-77.33966797 38.22552002 -77.67933594 39.01354004 -78.02929688 39.82543945 C-83.69936025 52.81852142 -89.82157451 65.61990746 -95.875 78.4375 C-93.51017053 75.51180383 -91.20553535 72.57101355 -89.02734375 69.50390625 C-88.51010742 68.77953369 -87.99287109 68.05516113 -87.45996094 67.30883789 C-86.91629883 66.54692139 -86.37263672 65.78500488 -85.8125 65 C-80.44086922 57.51960226 -74.91547855 50.19717662 -69.14501953 43.02050781 C-67.88918046 41.45517514 -66.64567829 39.87997076 -65.40234375 38.3046875 C-55.39728029 25.77747949 -55.39728029 25.77747949 -50.73046875 25.1484375 C-48.5 25.125 -48.5 25.125 -44.875 25.4375 C-43.72392257 29.54005804 -44.02570743 31.76594697 -45.625 35.6875 C-46.07746094 36.79996094 -46.52992187 37.91242188 -46.99609375 39.05859375 C-51.18373224 48.89702153 -55.52407689 58.67047108 -59.875 68.4375 C-56.30968125 65.74798254 -53.51747488 62.9988038 -50.75 59.5 C-47.81074864 55.82837704 -44.8407116 52.20289335 -41.77709961 48.63452148 C-36.70248932 42.71870817 -31.94484151 36.64073546 -27.3125 30.36962891 C-24.13471046 26.0983948 -20.90855456 21.86363411 -17.6875 17.625 C-17.00985596 16.72910156 -16.33221191 15.83320313 -15.6340332 14.91015625 C-13.73057539 12.40615972 -11.81008418 9.91711626 -9.875 7.4375 C-9.0401709 6.35964233 -9.0401709 6.35964233 -8.18847656 5.26000977 C-4.33752115 0.48972013 -4.33752115 0.48972013 0 0 Z " fill="#1B1D1F" transform="translate(157.875,318.5625)"/>
<path d="M0 0 C2.36497439 1.86708505 3.66030715 3.32061431 5 6 C6.63502301 20.9353063 0.58158209 36.07408401 -4.1875 49.9375 C-4.7528051 51.60322673 -5.31726317 53.26924117 -5.88085938 54.93554688 C-7.24419987 58.96040277 -8.61881888 62.98123324 -10 67 C-8.60615849 65.60615849 -7.55617562 64.02649619 -6.41015625 62.421875 C-5.87801514 61.679375 -5.34587402 60.936875 -4.79760742 60.171875 C-4.22502197 59.37265625 -3.65243652 58.5734375 -3.0625 57.75 C2.48041743 50.04553525 8.15148419 42.47478705 14 35 C14.67417969 34.10796875 15.34835937 33.2159375 16.04296875 32.296875 C20.78266267 26.12865057 26.01902771 20.96896344 32 16 C33.010625 15.154375 34.02125 14.30875 35.0625 13.4375 C39.12484333 11.44954476 42.56079102 11.33453983 47 12 C49.5625 13 49.5625 13 51 15 C51.61074486 21.52865198 50.35828059 25.33692581 47 30.875 C46.58919189 31.5747998 46.17838379 32.27459961 45.75512695 32.99560547 C42.30395172 38.75399343 38.41628607 43.94288921 34 49 C33.02504927 50.13326158 32.05116615 51.26744215 31.078125 52.40234375 C30.5632251 53.00224121 30.0483252 53.60213867 29.51782227 54.22021484 C27.46999669 56.60749923 25.4231058 58.99556432 23.38037109 61.38720703 C22.15076378 62.82385117 20.91377947 64.25417396 19.67578125 65.68359375 C19.04027344 66.44800781 18.40476562 67.21242188 17.75 68 C16.93789063 68.9590625 16.93789063 68.9590625 16.109375 69.9375 C14.55622389 72.82504854 14.66196905 74.75248833 15 78 C16.06313981 81.22733182 16.06313981 81.22733182 17.5 84.4375 C19.47238671 89.29346053 20.60453689 92.80098276 20 98 C21.65 98 23.3 98 25 98 C21 102 21 102 19.49609375 103.34765625 C17.71965612 105.30962261 16.91625869 107.19539638 15.875 109.625 C8.6365961 124.29341261 -6.98928925 131.99264156 -21.78125 137.22265625 C-25.3341517 138.08069926 -28.35814573 138.27844274 -32 138 C-32.66 137.34 -33.32 136.68 -34 136 C-33.83347803 132.93700505 -33.28803971 131.35477232 -31.34765625 128.96484375 C-20.04953507 118.9413824 -2.18790378 103.75143184 13 101 C13.68422725 93.27583457 12.54766121 87.86807421 9.09375 80.921875 C7.74785513 77.32641299 7.55806607 74.81436181 8 71 C9.65234375 68.26171875 9.65234375 68.26171875 11.9375 65.6875 C13.17886719 64.25664062 13.17886719 64.25664062 14.4453125 62.796875 C16.00864901 61.08533228 17.58402739 59.38457329 19.1796875 57.703125 C28.5089014 47.79297104 43 31.25655774 43 17 C38.4224778 19.0748611 35.43956402 22.21747941 31.9375 25.75 C31.26992676 26.42248779 30.60235352 27.09497559 29.91455078 27.7878418 C23.71285685 34.13457414 18.24244107 40.85171507 13 48 C12.49259277 48.68964844 11.98518555 49.37929688 11.46240234 50.08984375 C5.41232129 58.34045566 -0.49358028 66.6912514 -6.375 75.0625 C-16.56532675 89.56532675 -16.56532675 89.56532675 -21 94 C-23.5625 94.1875 -23.5625 94.1875 -26 94 C-26.33 93.67 -26.66 93.34 -27 93 C-26.54084538 87.21994244 -24.81516468 82.20266313 -22.796875 76.796875 C-22.13927196 74.99220607 -21.48172167 73.18751791 -20.82421875 71.3828125 C-19.79568352 68.58531328 -18.76436659 65.78886621 -17.73095703 62.99316406 C-7.28936851 35.71877589 -7.28936851 35.71877589 -4 7 C-17.22128521 16.28303004 -24.32383649 35.33895455 -30 50 C-30.66 50 -31.32 50 -32 50 C-33.58917214 34.99115201 -25.87710239 20.16191379 -17 8.5625 C-12.07400109 2.68308195 -8.22890975 -1.21909774 0 0 Z " fill="#1C1E1F" transform="translate(290,310)"/>
<path d="M0 0 C1.875 1 1.875 1 3 3 C3.54080722 10.07965819 1.88687235 16.20895942 0 23 C-0.28617187 24.06089844 -0.57234375 25.12179687 -0.8671875 26.21484375 C-1.56924475 28.81245558 -2.28034984 31.40721785 -3 34 C-2.49549316 33.6918335 -1.99098633 33.38366699 -1.47119141 33.06616211 C0.8059163 31.6815904 3.09026381 30.30944368 5.375 28.9375 C6.1690625 28.45216797 6.963125 27.96683594 7.78125 27.46679688 C8.92207031 26.78520508 8.92207031 26.78520508 10.0859375 26.08984375 C10.7876709 25.66566162 11.4894043 25.24147949 12.21240234 24.80444336 C12.80230957 24.53897705 13.3922168 24.27351074 14 24 C14.66 24.33 15.32 24.66 16 25 C15.44538086 25.36762451 14.89076172 25.73524902 14.31933594 26.11401367 C11.79061564 27.7969188 9.27032096 29.4920446 6.75 31.1875 C5.87730469 31.76564453 5.00460937 32.34378906 4.10546875 32.93945312 C-3.24315432 37.90398093 -7.06376417 42.70493672 -10.8125 50.625 C-15.68141657 60.59154365 -20.7608936 69.44247418 -29 77 C-29.763125 77.804375 -30.52625 78.60875 -31.3125 79.4375 C-40.02309608 87.74295208 -49.19895321 92.94016383 -60 98 C-60.99 98.495 -60.99 98.495 -62 99 C-63.9972542 99.12199138 -65.99905981 99.17547512 -68 99.1875 C-69.0725 99.20167969 -70.145 99.21585937 -71.25 99.23046875 C-74 99 -74 99 -76 97 C-76.66417403 93.38394139 -76.58632081 90.98356183 -74.6796875 87.78515625 C-68.66066582 79.89025113 -61.70930787 73.46288723 -53.625 67.75 C-52.84406982 67.19207764 -52.06313965 66.63415527 -51.25854492 66.05932617 C-46.02367729 62.34978067 -40.70594344 58.78655969 -35.3125 55.3125 C-34.27295166 54.63791748 -34.27295166 54.63791748 -33.21240234 53.94970703 C-29.77693514 51.73319866 -26.31960862 49.59265743 -22.77734375 47.55078125 C-14.96237198 42.92517542 -10.4428226 39.42701295 -7.78125 30.3046875 C-7.5234375 29.21414063 -7.265625 28.12359375 -7 27 C-6.7009375 25.95070313 -6.401875 24.90140625 -6.09375 23.8203125 C-4.46738009 17.90213311 -3.50924939 12.11099272 -3 6 C-6.30059501 7.10019834 -6.73660622 7.63753479 -8.671875 10.3515625 C-9.17203125 11.03863281 -9.6721875 11.72570312 -10.1875 12.43359375 C-10.703125 13.15675781 -11.21875 13.87992187 -11.75 14.625 C-22.9272086 30.2673306 -22.9272086 30.2673306 -30 33 C-33.6936366 33.33334129 -37.31502665 33.45691296 -41 33 C-41.66 32.34 -42.32 31.68 -43 31 C-43 30.01 -43 29.02 -43 28 C-46.21130391 29.75162032 -48.7069484 31.65963687 -51.3125 34.1875 C-53.99672238 36.55974039 -55.71187395 37.42824839 -59.3125 37.5 C-63 37 -63 37 -65 35 C-65.76178419 28.79690018 -64.53070592 25.53722955 -61.28125 20.29296875 C-59.98858479 17.97957094 -59.34703326 15.93069137 -58.6875 13.375 C-57.0473022 8.07231508 -53.69632172 4.84625559 -49 2 C-44.73874968 1.27639145 -43.61248141 1.59167906 -40 4 C-38.71300025 11.26776332 -40.52157881 18.19909425 -43 25 C-42.32195312 24.40832031 -41.64390625 23.81664062 -40.9453125 23.20703125 C-26.27913908 10.75500313 -26.27913908 10.75500313 -17.875 10.6875 C-16.92625 10.790625 -15.9775 10.89375 -15 11 C-14.773125 10.46375 -14.54625 9.9275 -14.3125 9.375 C-10.8179331 3.05149799 -7.56165953 -0.61727833 0 0 Z " fill="#1E2022" transform="translate(421,383)"/>
<path d="M0 0 C7.02794868 0.33466422 12.60620068 2.13013183 19 5 C18.30539603 21.0800818 13.16860924 36.41337753 7.9375 51.5 C7.65476227 52.32194855 7.37202454 53.14389709 7.08071899 53.99075317 C-0.01868141 74.56818791 -7.85862404 95.78793606 -20 114 C-23.55241825 114.39471314 -26.01276693 114.52871087 -29.20458984 112.81933594 C-31 111 -31 111 -31.44775391 108.47753906 C-31.21980049 101.45842537 -30.59573058 94.66669227 -29.375 87.75 C-29.19678711 86.72132813 -29.01857422 85.69265625 -28.83496094 84.6328125 C-24.1514271 58.57619788 -16.8633003 32.10952235 -4.8125 8.4375 C-4.27979492 7.37305664 -4.27979492 7.37305664 -3.73632812 6.28710938 C-1.14122828 1.14122828 -1.14122828 1.14122828 0 0 Z " fill="#899BB8" transform="translate(221,179)"/>
<path d="M0 0 C2.47180466 2.16282908 3.81639996 3.93750847 4.3828125 7.21533203 C4.54234214 9.92681116 4.55323096 12.5967954 4.5 15.3125 C4.48791504 16.29653809 4.47583008 17.28057617 4.46337891 18.29443359 C4.24973813 26.24575481 3.03356615 33.30707218 0.64599609 40.92041016 C-0.05933271 43.1910038 -0.70948108 45.47356003 -1.35546875 47.76171875 C-6.36176068 65.27691065 -12.4763222 81.88817001 -21 98 C-21.33 98.66 -21.66 99.32 -22 100 C-22.66 100 -23.32 100 -24 100 C-24 99.34 -24 98.68 -24 98 C-24.62648437 97.79503906 -25.25296875 97.59007812 -25.8984375 97.37890625 C-26.71570313 97.10949219 -27.53296875 96.84007812 -28.375 96.5625 C-29.18710938 96.29566406 -29.99921875 96.02882813 -30.8359375 95.75390625 C-33 95 -33 95 -35 94 C-36.53668865 93.77532169 -38.07968054 93.59203195 -39.625 93.4375 C-40.85089844 93.31181641 -40.85089844 93.31181641 -42.1015625 93.18359375 C-42.72804687 93.12300781 -43.35453125 93.06242187 -44 93 C-44.24758483 86.69386886 -43.39720708 81.23432177 -41.875 75.125 C-41.65054199 74.20879883 -41.42608398 73.29259766 -41.19482422 72.34863281 C-37.21695742 56.53011919 -21.93761095 -3.65626849 0 0 Z " fill="#8A9CB9" transform="translate(267,76)"/>
<path d="M0 0 C4.16160823 1.83885015 6.0181044 3.93711401 8 8 C16.20964111 34.33926523 -2.16535053 75.90820179 -14.1315918 98.92675781 C-16.35953159 103.26827841 -17.64646474 107.19518278 -18.41015625 112.02832031 C-19.1212335 114.40524907 -20.23575587 115.30088664 -22 117 C-22.78506687 119.51683202 -23.43328066 121.93535486 -24 124.5 C-26.89226744 137.00047791 -30.56775991 149.14709058 -34.625 161.3125 C-35.02217224 162.50462097 -35.02217224 162.50462097 -35.42736816 163.7208252 C-52.25442703 214.05526155 -52.25442703 214.05526155 -64 225 C-65.33082769 225.34320046 -66.66395747 225.67769696 -68 226 C-69.10836423 227.88316159 -69.10836423 227.88316159 -70 230 C-71.3125 231.8125 -71.3125 231.8125 -73 233 C-75.60546875 232.57421875 -75.60546875 232.57421875 -78 232 C-78.19916016 230.95199219 -78.19916016 230.95199219 -78.40234375 229.8828125 C-78.57894531 228.97273437 -78.75554687 228.06265625 -78.9375 227.125 C-79.11152344 226.22007812 -79.28554687 225.31515625 -79.46484375 224.3828125 C-79.89963701 222.00043683 -79.89963701 222.00043683 -81 220 C-81.12619896 218.08647154 -81.17580701 216.16764977 -81.1875 214.25 C-81.20167969 213.22390625 -81.21585938 212.1978125 -81.23046875 211.140625 C-80.47659527 188.02893113 -73.48590318 164.20056532 -66 142.4375 C-65.75509827 141.71986481 -65.51019653 141.00222961 -65.25787354 140.2628479 C-61.5511319 129.4836705 -57.09720788 119.19441576 -52 109 C-51.72904124 106.73340843 -51.55512003 104.46718841 -51.37890625 102.19140625 C-51 100 -51 100 -49 97 C-48.70940589 95.11260591 -48.49255746 93.21362617 -48.3125 91.3125 C-45.23634556 68.04908208 -36.09656084 44.5806088 -25 24 C-24.42378906 22.90816406 -23.84757812 21.81632812 -23.25390625 20.69140625 C-11.22170409 -1.12217041 -11.22170409 -1.12217041 0 0 Z M-16.8125 16.5625 C-28.70273219 36.4534181 -36.49950335 58.05781359 -42 80.5 C-42.20794189 81.34175781 -42.41588379 82.18351562 -42.63012695 83.05078125 C-43.80630116 88.1532032 -44.19211126 92.76496826 -44 98 C-42.700625 98.0825 -41.40125 98.165 -40.0625 98.25 C-35.50951471 98.73267407 -31.92782232 100.13806337 -27.84765625 102.16015625 C-26.03480686 103.13793431 -26.03480686 103.13793431 -24 103 C-24 103.66 -24 104.32 -24 105 C-23.34 105 -22.68 105 -22 105 C-8.94145707 79.77778891 4.02958754 49.81934961 4.3125 21 C4.34150391 20.01515625 4.37050781 19.0303125 4.40039062 18.015625 C4.43979143 13.52999525 4.46124247 10.78665295 2.15625 6.85546875 C0.09478085 4.79783036 0.09478085 4.79783036 -2.8125 4.3125 C-9.7055859 5.79924402 -13.12767557 10.85361708 -16.8125 16.5625 Z M-46 108 C-48.98467629 112.24386841 -51.32505991 116.51740108 -53.37109375 121.29296875 C-53.67051376 121.98633835 -53.96993378 122.67970795 -54.27842712 123.39408875 C-57.60426663 131.23066911 -60.39151025 139.23323037 -63.0625 147.3125 C-63.32013123 148.08603821 -63.57776245 148.85957642 -63.84320068 149.65655518 C-68.56844697 163.91416078 -72.29489917 178.21085812 -75 193 C-75.14115234 193.75941895 -75.28230469 194.51883789 -75.42773438 195.30126953 C-77.60570604 207.12044533 -77.60570604 207.12044533 -77 219 C-75.48506712 220.99407295 -75.48506712 220.99407295 -73 222 C-69.33285151 222.25063732 -69.33285151 222.25063732 -66 222 C-54.56264279 202.89618537 -46.41279658 182.9687075 -39 162 C-38.65662598 161.0423877 -38.31325195 160.08477539 -37.95947266 159.09814453 C-34.42617913 149.20527793 -31.42373714 139.30301821 -29.0625 129.0625 C-28.85069092 128.14428467 -28.63888184 127.22606934 -28.4206543 126.2800293 C-27.43522929 121.7744495 -26.74757557 117.64307958 -27 113 C-33.4150557 110.12059087 -38.97047248 108.4535179 -46 108 Z " fill="#0C0D0B" transform="translate(267,71)"/>
<path d="M0 0 C1.32 0 2.64 0 4 0 C3.38969156 3.60786955 2.40274298 6.67575045 0.91796875 10.015625 C0.27033569 11.49736206 0.27033569 11.49736206 -0.39038086 13.0090332 C-0.85968018 14.07855225 -1.32897949 15.14807129 -1.8125 16.25 C-6.3690874 26.81985717 -10.51719729 37.49195396 -14.4375 48.3125 C-14.68803131 49.00065796 -14.93856262 49.68881592 -15.19668579 50.39782715 C-19.3770718 61.90519283 -23.23331207 73.48590083 -26.1875 85.375 C-26.35185547 86.02082031 -26.51621094 86.66664063 -26.68554688 87.33203125 C-28.10848991 93.05836881 -29.13443899 98.77650361 -29.1875 104.6875 C-29.20876953 105.77611328 -29.20876953 105.77611328 -29.23046875 106.88671875 C-28.96788994 109.29443296 -28.19356383 110.91008389 -27 113 C-19.59125237 112.68473414 -14.2371394 109.31674119 -9.09375 104.046875 C-7.6796507 102.40598619 -6.3322493 100.70801192 -5 99 C-4.01 99.33 -3.02 99.66 -2 100 C-5.83348938 107.0956414 -10.53714317 112.71898429 -17.8125 116.4375 C-22.59067719 117.28070774 -27.17885947 117.73381134 -32 117 C-35.41311667 114.47429367 -36.66637768 113.00086696 -38 109 C-41.4660175 77.70681343 -20.31626962 40.70815168 -7.5625 13.25 C-7.25683105 12.58911377 -6.95116211 11.92822754 -6.63623047 11.24731445 C-4.73677422 7.25025725 -2.76096122 3.46849078 0 0 Z " fill="#1C1E20" transform="translate(357,314)"/>
<path d="M0 0 C2.0423166 0.00503074 4.08463441 0.00959083 6.12695312 0.01367188 C11.06383287 0.02453969 16.00065246 0.04171529 20.9375 0.0625 C20.75058594 0.68253906 20.56367188 1.30257812 20.37109375 1.94140625 C19.69024355 4.10694602 19.69024355 4.10694602 21 6 C21.9375 8.0625 21.9375 8.0625 21.3125 10.6875 C19.67302152 13.51932646 18.99640699 13.99138436 15.9375 15.0625 C13.29373712 15.12474105 10.81415564 15.06488917 8.1875 14.875 C7.40890625 14.82529053 6.6303125 14.77558105 5.828125 14.72436523 C-2.89103733 14.10533877 -11.54732624 12.95876884 -20.2109375 11.8203125 C-25.3632737 11.14330191 -30.52040249 10.5512918 -35.6875 10 C-45.19071066 8.97406107 -54.63663656 7.65699486 -64.0625 6.0625 C-64.0625 5.4025 -64.0625 4.7425 -64.0625 4.0625 C-60.41794665 3.57327659 -56.7716701 3.0981648 -53.125 2.625 C-52.12275391 2.49029297 -51.12050781 2.35558594 -50.08789062 2.21679688 C-33.39902004 0.07183232 -16.79946641 -0.07291554 0 0 Z " fill="#F3DE6F" transform="translate(320.0625,222.9375)"/>
<path d="M0 0 C1.21236328 0.02707031 1.21236328 0.02707031 2.44921875 0.0546875 C3.37154297 0.08949219 3.37154297 0.08949219 4.3125 0.125 C4.9725 1.775 5.6325 3.425 6.3125 5.125 C6.9725 4.465 7.6325 3.805 8.3125 3.125 C10.9375 3 10.9375 3 13.3125 3.125 C12.94184345 10.26501573 12.56749427 17.27651999 11.25 24.3125 C9.19652696 35.1317679 9.19652696 35.1317679 12.3125 45.125 C9.9375 44.8125 9.9375 44.8125 7.3125 44.125 C4.50585931 39.91503896 4.1827274 36.23975312 4.21484375 31.26171875 C4.21806641 30.37548828 4.22128906 29.48925781 4.22460938 28.57617188 C4.23298828 27.66416016 4.24136719 26.75214844 4.25 25.8125 C4.25451172 24.88115234 4.25902344 23.94980469 4.26367188 22.99023438 C4.27540766 20.70175627 4.29182637 18.41341192 4.3125 16.125 C3.72082031 16.71667969 3.12914062 17.30835938 2.51953125 17.91796875 C0.8893224 19.5481776 -0.74224196 21.17703183 -2.375 22.8046875 C-4.06109661 24.49648038 -5.72486414 26.21061363 -7.375 27.9375 C-11.31048395 31.66025509 -14.0351904 34.01839938 -19.5625 34.375 C-20.59375 34.2925 -21.625 34.21 -22.6875 34.125 C-24.63370041 27.89715867 -22.46541889 22.3128965 -19.625 16.75 C-15.46234253 9.60514016 -8.96676803 -0.25990632 0 0 Z " fill="#1C1E20" transform="translate(237.6875,382.875)"/>
<path d="M0 0 C1 3 1 3 -0.30078125 5.8984375 C-0.95721645 7.06535817 -1.62893323 8.22376263 -2.3125 9.375 C-2.67496826 9.9927832 -3.03743652 10.61056641 -3.41088867 11.24707031 C-13.13002642 27.42571555 -25.15545085 39.34902139 -42 48 C-42.89589844 48.46792969 -43.79179687 48.93585938 -44.71484375 49.41796875 C-48.14886482 51.09212544 -50.20567922 52.06484251 -54.0625 51.75 C-54.701875 51.5025 -55.34125 51.255 -56 51 C-55.81687839 43.8582572 -51.07440819 39.06754567 -46.25 34.25390625 C-44.21916713 32.42878275 -42.12925293 30.70964445 -40 29 C-39.00226563 28.18917969 -38.00453125 27.37835938 -36.9765625 26.54296875 C-25.14914287 17.03570268 -12.7241643 8.26526912 0 0 Z " fill="#F8F8F8" transform="translate(189,428)"/>
<path d="M0 0 C-4.07889355 13.38765557 -12.21906341 23.35889095 -22 33 C-22.67804688 33.68835938 -23.35609375 34.37671875 -24.0546875 35.0859375 C-31.51431585 42.16137898 -42.08926703 48.24701862 -52 51 C-54.2109375 50.55859375 -54.2109375 50.55859375 -56 50 C-55.33730072 39.75364963 -46.81792811 33.38809581 -39.54321289 26.89648438 C-31.59133318 20.02271903 -22.84778086 14.2590742 -14.12011719 8.43017578 C-10.59729746 6.05377344 -7.15374524 3.57029312 -3.71484375 1.07421875 C-2 0 -2 0 0 0 Z " fill="#F9F9F9" transform="translate(407,429)"/>
<path d="M0 0 C0.99 0.66 1.98 1.32 3 2 C3.97165794 8.30010472 2.78653964 13.97042871 1 20 C0.83526419 23.00885104 0.87714908 25.9901525 1 29 C0.67 28.01 0.34 27.02 0 26 C-3.21130391 27.75162032 -5.7069484 29.65963687 -8.3125 32.1875 C-10.99672238 34.55974039 -12.71187395 35.42824839 -16.3125 35.5 C-20 35 -20 35 -22 33 C-22.76178419 26.79690018 -21.53070592 23.53722955 -18.28125 18.29296875 C-16.98858479 15.97957094 -16.34703326 13.93069137 -15.6875 11.375 C-13.56240118 4.50465212 -7.58316658 -1.5871744 0 0 Z " fill="#202224" transform="translate(378,385)"/>
<path d="M0 0 C0.66 0.33 1.32 0.66 2 1 C0.65579148 5.03262555 -1.28938948 5.79297667 -4.8125 8.125 C-6.00381709 8.9278907 -7.19389426 9.73262384 -8.3828125 10.5390625 C-8.98770508 10.94801758 -9.59259766 11.35697266 -10.21582031 11.77832031 C-18.68788457 17.57938894 -26.5268106 23.96803211 -34 31 C-34.928125 31.86625 -35.85625 32.7325 -36.8125 33.625 C-42.37963072 39.45992418 -42.37963072 39.45992418 -44 47 C-42.02 47.66 -40.04 48.32 -38 49 C-38 49.33 -38 49.66 -38 50 C-39.79133978 50.05391993 -41.58313899 50.09275571 -43.375 50.125 C-44.37273437 50.14820313 -45.37046875 50.17140625 -46.3984375 50.1953125 C-49 50 -49 50 -51 48 C-51.67162742 42.83138898 -50.35478702 40.32365673 -47.25 36.25 C-46.55390625 35.30640625 -45.8578125 34.3628125 -45.140625 33.390625 C-37.04268886 24.02797622 -26.2173821 17.20433202 -15.9375 10.5 C-14.71635741 9.69597957 -13.49565247 8.89129402 -12.27539062 8.0859375 C-10.06243542 6.62674865 -7.84668606 5.17221294 -5.62866211 3.72070312 C-3.74688966 2.48890855 -1.87135222 1.24756815 0 0 Z " fill="#212325" transform="translate(178,432)"/>
<path d="M0 0 C0.66 0.33 1.32 0.66 2 1 C0.89513667 4.31459 0.44730754 4.65407139 -2.32421875 6.49609375 C-3.36267944 7.20125122 -3.36267944 7.20125122 -4.42211914 7.9206543 C-5.54348267 8.67149292 -5.54348267 8.67149292 -6.6875 9.4375 C-25.69149254 21.67508052 -25.69149254 21.67508052 -38.69921875 39.109375 C-39.07451738 41.21702088 -39.07451738 41.21702088 -39 44 C-37.02 44 -35.04 44 -33 44 C-33.33 44.99 -33.66 45.98 -34 47 C-35.62463842 47.05395478 -37.24978541 47.09277195 -38.875 47.125 C-39.77992188 47.14820313 -40.68484375 47.17140625 -41.6171875 47.1953125 C-44 47 -44 47 -46 45 C-46.66417403 41.38394139 -46.58632081 38.98356183 -44.6796875 35.78515625 C-38.60780838 27.82092018 -31.59490059 21.38285353 -23.4375 15.625 C-22.65826172 15.06989746 -21.87902344 14.51479492 -21.07617188 13.94287109 C-16.10392656 10.42475385 -11.09127873 6.96874814 -6 3.625 C-5.12879517 3.04419678 -5.12879517 3.04419678 -4.23999023 2.45166016 C-2.86645449 1.56919199 -1.43731104 0.77426577 0 0 Z " fill="#1F2123" transform="translate(391,435)"/>
<path d="M0 0 C1.32404485 3.97213455 0.28629351 6.9254177 -0.6953125 10.859375 C-0.88463348 11.64080872 -1.07395447 12.42224243 -1.26901245 13.22735596 C-1.67376388 14.88935401 -2.08258249 16.55036597 -2.49511719 18.21044922 C-3.1117054 20.69639904 -3.71315589 23.18562554 -4.3125 25.67578125 C-6.47185165 34.53656524 -8.92867686 43.19258264 -11.90185547 51.81445312 C-13.22100295 55.64109527 -14.37752544 59.48642743 -15.5 63.375 C-15.91006752 64.78778617 -16.32022685 66.2005457 -16.73046875 67.61328125 C-16.93591309 68.32436035 -17.14135742 69.03543945 -17.35302734 69.76806641 C-18.49370975 73.70320548 -19.6544147 77.63245483 -20.8125 81.5625 C-21.23576133 83.0012773 -21.65894653 84.440077 -22.08203125 85.87890625 C-22.38496094 86.90886719 -22.68789062 87.93882812 -23 89 C-23.33 89 -23.66 89 -24 89 C-23.52935237 79.73082217 -21.59796284 70.92390197 -19.4375 61.9375 C-19.17297531 60.82507935 -19.17297531 60.82507935 -18.90310669 59.69018555 C-14.0369834 39.29339901 -8.01694696 19.39099047 0 0 Z " fill="#C5CEDE" transform="translate(220,190)"/>
<path d="M0 0 C0.66 0 1.32 0 2 0 C2.1767942 11.01175272 -2.18288003 20.87825182 -6 31 C-6.45358887 32.20930176 -6.90717773 33.41860352 -7.37451172 34.66455078 C-15.48282853 56.2689969 -15.48282853 56.2689969 -19 65 C-19.33 65 -19.66 65 -20 65 C-19.3770476 57.5245712 -17.82703872 50.50245619 -15.9375 43.25 C-15.63094482 42.07074951 -15.32438965 40.89149902 -15.00854492 39.67651367 C-11.32011527 25.91201126 -6.53125145 12.67149672 0 0 Z " fill="#C4CEDD" transform="translate(249,100)"/>
<path d="M0 0 C-1.32482774 7.4687164 -8.5972237 12.98979361 -14.39453125 17.3203125 C-26.9813643 25.43476259 -26.9813643 25.43476259 -32.38671875 24.65625 C-32.91910156 24.4396875 -33.45148438 24.223125 -34 24 C-27.48941219 17.36351685 -20.15618718 12.16167097 -12.5 6.9375 C-11.50790527 6.2580835 -10.51581055 5.57866699 -9.49365234 4.87866211 C-2.26061101 0 -2.26061101 0 0 0 Z " fill="#F4F4F4" transform="translate(300,418)"/>
<path d="M0 0 C0.64187532 5.13500253 0.58697556 8.86443625 -2.5625 13.125 C-3.67923544 14.441905 -4.82628108 15.73361906 -6 17 C-6.5878125 17.65484375 -7.175625 18.3096875 -7.78125 18.984375 C-10.90647795 22.30150292 -13.48234935 24.76791346 -18 26 C-17.56881098 16.0826526 -11.13845449 8.80675877 -4.83203125 1.6171875 C-3 0 -3 0 0 0 Z " fill="#F3F3F3" transform="translate(238,387)"/>
<path d="M0 0 C7.28594532 0.27703214 14.73001651 0.93612181 21 5 C21.7734375 7.13671875 21.7734375 7.13671875 22 9 C18.89621148 11.63822024 16.18537076 12.70365731 12.25 13.6875 C10.77273438 14.06455078 10.77273438 14.06455078 9.265625 14.44921875 C8.51796875 14.63097656 7.7703125 14.81273437 7 15 C7.375 13.0625 7.375 13.0625 8 11 C8.66 10.67 9.32 10.34 10 10 C10 9.34 10 8.68 10 8 C7.525 7.01 7.525 7.01 5 6 C5 4.68 5 3.36 5 2 C3.35 1.67 1.7 1.34 0 1 C0 0.67 0 0.34 0 0 Z " fill="#494949" transform="translate(366,243)"/>
<path d="M0 0 C9.57 0 19.14 0 29 0 C29 1.98 29 3.96 29 6 C18.44 6 7.88 6 -3 6 C-3 5.67 -3 5.34 -3 5 C1.62 5 6.24 5 11 5 C11 3.68 11 2.36 11 1 C7.37 1 3.74 1 0 1 C0 0.67 0 0.34 0 0 Z " fill="#535146" transform="translate(330,217)"/>
<path d="M0 0 C5.89789646 0.04903239 9.48622321 1.08318779 14.1875 4.6875 C15.3125 6.25 15.3125 6.25 15.3125 10.25 C12.409229 9.84489242 9.77736013 9.44369172 7.0625 8.3125 C2.93860529 6.71917704 -1.34846293 6.04197958 -5.6875 5.25 C-6.25 3.3125 -6.25 3.3125 -6.6875 1.25 C-4.91035156 -0.52714844 -2.40479002 0.03549506 0 0 Z " fill="#EDD96C" transform="translate(227.6875,171.75)"/>
<path d="M0 0 C0.55353075 12.66970387 0.55353075 12.66970387 -3 18 C-6.875 16.25 -6.875 16.25 -8 14 C-8.5811138 6.91041162 -8.5811138 6.91041162 -6.125 3.0625 C-2.96969697 0 -2.96969697 0 0 0 Z " fill="#F5F5F6" transform="translate(377,388)"/>
<path d="M0 0 C0.99 0.33 1.98 0.66 3 1 C-0.56293911 7.59486325 -5.03732502 14.09778216 -12.29296875 16.87890625 C-14.5 17.4375 -14.5 17.4375 -18 18 C-17.7890625 16.171875 -17.7890625 16.171875 -17 14 C-14.9609375 12.578125 -14.9609375 12.578125 -12.375 11.25 C-7.10800892 8.29866879 -3.64854602 4.76002361 0 0 Z " fill="#222426" transform="translate(352,413)"/>
<path d="M0 0 C3.36591866 1.44253657 5.51047079 3.33264727 8 6 C7.09515208 7.15518918 6.1755794 8.29885406 5.25 9.4375 C4.48429687 10.39462891 4.48429687 10.39462891 3.703125 11.37109375 C1.7942387 13.19679464 0.6033699 13.69919045 -2 14 C-2.33 13.67 -2.66 13.34 -3 13 C-2.94921875 11.07421875 -2.94921875 11.07421875 -2.6875 8.6875 C-2.60886719 7.90761719 -2.53023438 7.12773437 -2.44921875 6.32421875 C-1.98413721 3.91792729 -1.19341444 2.12866168 0 0 Z " fill="#EFEFEF" transform="translate(363,404)"/>
<path d="M0 0 C0.66 0.33 1.32 0.66 2 1 C-2.62838686 7.228627 -7.18486008 13.06449667 -14 17 C-14.66 17 -15.32 17 -16 17 C-14.9575415 11.07514091 -10.46497591 6.88863262 -5.828125 3.3359375 C-2.02707364 0.85276891 -2.02707364 0.85276891 0 0 Z " fill="#E8E8E8" transform="translate(184,396)"/>
<path d="M0 0 C-3.15559838 6.94541016 -8.94487414 12.49385982 -15 17 C-15.66 17 -16.32 17 -17 17 C-16.25504036 10.79200297 -12.52214041 7.95997304 -8 4 C-2.88579387 0 -2.88579387 0 0 0 Z " fill="#F1F1F2" transform="translate(403,396)"/>
<path d="M0 0 C0 0.66 0 1.32 0 2 C-1.093125 2.12375 -2.18625 2.2475 -3.3125 2.375 C-7.07381802 2.75464801 -7.07381802 2.75464801 -10 5 C-13.0625 5.25 -13.0625 5.25 -16 5 C-16.66 4.34 -17.32 3.68 -18 3 C-12.20726785 0.46567969 -6.26475546 -1.95773608 0 0 Z " fill="#FCEFAB" transform="translate(169,310)"/>
<path d="M0 0 C0.66 0.33 1.32 0.66 2 1 C1.8125 2.875 1.8125 2.875 1 5 C-0.65697379 5.69040574 -2.3255761 6.3530635 -4 7 C-5.63021117 8.00041576 -7.23566888 9.04239953 -8.8125 10.125 C-9.60269531 10.66382813 -10.39289063 11.20265625 -11.20703125 11.7578125 C-11.79871094 12.16773438 -12.39039063 12.57765625 -13 13 C-13.33 11.68 -13.66 10.36 -14 9 C-11.71439353 7.4693001 -9.42237333 5.95034956 -7.125 4.4375 C-6.14853516 3.78104492 -6.14853516 3.78104492 -5.15234375 3.11132812 C-3.47374503 2.01245164 -1.73976613 0.9992182 0 0 Z " fill="#2A2C2E" transform="translate(406,425)"/>
<path d="M0 0 C0.66 0.33 1.32 0.66 2 1 C-6.91 6.94 -6.91 6.94 -16 13 C-16.66 11.68 -17.32 10.36 -18 9 C-17.31292969 8.92007812 -16.62585938 8.84015625 -15.91796875 8.7578125 C-11.59788388 7.63586275 -8.22547584 5.14465544 -4.55273438 2.70703125 C-3.06907423 1.74994182 -1.53732043 0.86828193 0 0 Z " fill="#37393A" transform="translate(435,407)"/>
<path d="M0 0 C3.09150195 1.1549004 6.04685441 2.52998975 9 4 C8.34 4.66 7.68 5.32 7 6 C6.38125 5.690625 5.7625 5.38125 5.125 5.0625 C0.81197706 3.5960722 -3.4759996 3.33380974 -8 3 C-8 2.34 -8 1.68 -8 1 C-5.09261897 -0.45369052 -3.26033542 -0.29639413 0 0 Z " fill="#1D1C14" transform="translate(232,169)"/>
<path d="M0 0 C0.33 0.66 0.66 1.32 1 2 C1.66 2.33 2.32 2.66 3 3 C0.525 11.415 0.525 11.415 -2 20 C-2.33 20 -2.66 20 -3 20 C-2.51358785 13.15182898 -1.64006048 6.66957927 0 0 Z " fill="#BAC5D7" transform="translate(199,259)"/>
<path d="M0 0 C1.26977059 3.80931176 0.52074507 5.81618993 -0.4375 9.6875 C-0.72496094 10.86699219 -1.01242188 12.04648438 -1.30859375 13.26171875 C-1.53675781 14.16535156 -1.76492187 15.06898438 -2 16 C-2.99 15.67 -3.98 15.34 -5 15 C-4.37321829 11.33827525 -3.35548154 8.1181005 -1.9375 4.6875 C-1.39416016 3.36298828 -1.39416016 3.36298828 -0.83984375 2.01171875 C-0.56269531 1.34785156 -0.28554687 0.68398437 0 0 Z " fill="#BCC7D9" transform="translate(220,190)"/>
<path d="M0 0 C0.66 0 1.32 0 2 0 C0.85569823 3.87302138 -0.23320098 7.00263439 -3 10 C-3.66 10 -4.32 10 -5 10 C-4.49890042 5.61537866 -3.01704885 3.1999003 0 0 Z " fill="#DFDFE0" transform="translate(147,390)"/>
<path d="M0 0 C0.66 0.33 1.32 0.66 2 1 C1.375 2.875 1.375 2.875 0 5 C-3.125 6.25 -3.125 6.25 -6 7 C-6 5.68 -6 4.36 -6 3 C-4.03533587 1.93224776 -2.03144641 0.93446535 0 0 Z " fill="#2D2F30" transform="translate(153,472)"/>
<path d="M0 0 C0.33 0.99 0.66 1.98 1 3 C-0.45804169 3.81302325 -1.91644315 4.62540131 -3.375 5.4375 C-4.59316406 6.11619141 -4.59316406 6.11619141 -5.8359375 6.80859375 C-7.20996622 7.5650536 -8.59709261 8.29854631 -10 9 C-10.66 8.34 -11.32 7.68 -12 7 C-8.04 4.69 -4.08 2.38 0 0 Z " fill="#353739" transform="translate(214,409)"/>
<path d="M0 0 C0.66 0.33 1.32 0.66 2 1 C2 3.64 2 6.28 2 9 C1.67 7.68 1.34 6.36 1 5 C-0.98 5.33 -2.96 5.66 -5 6 C-3.35 4.02 -1.7 2.04 0 0 Z " fill="#E0D183" transform="translate(285,316)"/>
<path d="M0 0 C2.475 0.495 2.475 0.495 5 1 C4.1875 3.4375 4.1875 3.4375 3 6 C2.01 6.33 1.02 6.66 0 7 C0 4.69 0 2.38 0 0 Z " fill="#797979" transform="translate(191,295)"/>
<path d="M0 0 C0.33 0.66 0.66 1.32 1 2 C-2.0096463 8.48231511 -2.0096463 8.48231511 -5.75 10.4375 C-6.86375 10.7159375 -6.86375 10.7159375 -8 11 C-6.63629701 8.00779732 -5.05091917 5.70973471 -2.875 3.25 C-2.33617187 2.63640625 -1.79734375 2.0228125 -1.2421875 1.390625 C-0.62730469 0.70226562 -0.62730469 0.70226562 0 0 Z " fill="#D8D8D8" transform="translate(138,350)"/>
<path d="M0 0 C2.475 0.99 2.475 0.99 5 2 C4.67 2.99 4.34 3.98 4 5 C2.35 4.67 0.7 4.34 -1 4 C-0.67 2.68 -0.34 1.36 0 0 Z " fill="#F8F7F3" transform="translate(372,249)"/>
<path d="M0 0 C0.99 0.33 1.98 0.66 3 1 C3 1.66 3 2.32 3 3 C1.02 3.66 -0.96 4.32 -3 5 C-2.625 3.0625 -2.625 3.0625 -2 1 C-1.34 0.67 -0.68 0.34 0 0 Z " fill="#2D2F30" transform="translate(360,477)"/>
<path d="M0 0 C0.99 0.33 1.98 0.66 3 1 C0.525 4.465 0.525 4.465 -2 8 C-2.33 7.34 -2.66 6.68 -3 6 C-2.06553465 3.96855359 -1.06775224 1.96466413 0 0 Z " fill="#D7D7D8" transform="translate(64,391)"/>
</svg>
